<svg xmlns="http://www.w3.org/2000/svg" viewBox="0 0 32 32" fill="none" role="img" aria-label="beep"><rect width="32" height="32" rx="6" fill="#122812"/><g transform="scale(1.3333)"><path d="M6 20l6.5 -9" stroke="#5c9a5c" stroke-width="2.25" stroke-linecap="round" stroke-linejoin="round"/><path d="M19 20c-6 0 -6 -16 -12 -16" stroke="#5c9a5c" stroke-width="2.25" stroke-linecap="round" stroke-linejoin="round"/><g transform="translate(5.4, 9.5) scale(0.52) rotate(8 12.5 2.5)"><path fill="#fafafa" d="m0,0v2h1v1h1v1h1v1h7v-1h1v-1h1v-2h2v2h1v1h1v1h6v-1h1v-1h1v-1h1v-2z"/><path fill="#122812" d="m2,1v1h4v2h1v-1h-2v-2h-1v3h1v-1h-2v-2z"/><path fill="#122812" d="m15,1v1h4v2h1v-1h-2v-2h-1v3h1v-1h-2v-2z"/></g></g></svg>
